STARTFONT 2.1
FONT -JDECW-Screen-Medium-R-Normal--24-240-75-75-M-240-JISX0208-Kanji11.3
SIZE 24 75 75
FONTBOUNDINGBOX 24 24 0 -4

STARTPROPERTIES 26
FONTNAME_REGISTRY ""
FAMILY_NAME "Screen"
FOUNDRY "JDECW"
WEIGHT_NAME "Medium"
SLANT "R"
SETWIDTH_NAME "Normal"
ADD_STYLE_NAME ""
PIXEL_SIZE 24
POINT_SIZE 240
RESOLUTION_X 75
RESOLUTION_Y 75
SPACING "M"
AVERAGE_WIDTH 240
CHARSET_REGISTRY "JISX0208"
CHARSET_ENCODING "Kanji11"
DEVICE_FONT_NAME "Screen-JISX0208-Kanji11"
CHARSET_COLLECTIONS "JISX0208 Kanji11"
FULL_NAME "Screen JISX0208 Kanji11"
COPYRIGHT "Copyright (c) 1988 Digital Equipment Corporation Japan."
CAP_HEIGHT 18
X_HEIGHT 13
WEIGHT 10
QUAD_WIDTH 24
DEFAULT_CHAR 41634
FONT_DESCENT 4
FONT_ASCENT 20
ENDPROPERTIES

CHARS 59

STARTCHAR Ca1a2
ENCODING 41378
SWIDTH 1000 0
DWIDTH 24 0
BBX 24 24 0 -4
BITMAP
000000
000000
000030
000018
00000C
00000E
000006
000006
000000
000000
000000
000000
000000
000000
000000
000000
000000
000000
000000
000000
000000
000000
000000
000000
ENDCHAR

STARTCHAR Ca1a3
ENCODING 41379
SWIDTH 1000 0
DWIDTH 24 0
BBX 24 24 0 -4
BITMAP
000000
000038
00006C
0000C6
000082
0000C6
00006C
000038
000000
000000
000000
000000
000000
000000
000000
000000
000000
000000
000000
000000
000000
000000
000000
000000
ENDCHAR

STARTCHAR Ca1a4
ENCODING 41380
SWIDTH 1000 0
DWIDTH 24 0
BBX 24 24 0 -4
BITMAP
000000
000000
00000C
00000E
000002
000006
00000C
000008
000000
000000
000000
000000
000000
000000
000000
000000
000000
000000
000000
000000
000000
000000
000000
000000
ENDCHAR

STARTCHAR Ca1a5
ENCODING 41381
SWIDTH 1000 0
DWIDTH 24 0
BBX 24 24 0 -4
BITMAP
000000
000000
000018
00003C
00003C
000018
000000
000000
000000
000000
000000
000000
000000
000000
000000
000000
000000
000000
000000
000000
000000
000000
000000
000000
ENDCHAR

STARTCHAR Ca1b1
ENCODING 41393
SWIDTH 1000 0
DWIDTH 24 0
BBX 24 24 0 -4
BITMAP
000000
000002
000002
000002
000002
000002
000002
000002
000002
000002
000002
000002
000002
000002
000002
000002
000002
000002
000002
000002
000002
000002
000002
000000
ENDCHAR

STARTCHAR Ca1b2
ENCODING 41394
SWIDTH 1000 0
DWIDTH 24 0
BBX 24 24 0 -4
BITMAP
000000
400000
400000
400000
400000
400000
400000
400000
400000
400000
400000
400000
400000
400000
400000
400000
400000
400000
400000
400000
400000
400000
400000
000000
ENDCHAR

STARTCHAR Ca1bc
ENCODING 41404
SWIDTH 1000 0
DWIDTH 24 0
BBX 24 24 0 -4
BITMAP
000000
000000
000000
003000
001800
001800
001800
001800
001800
001800
001800
001800
001800
001800
001800
001800
001800
001800
001800
001800
000800
000000
000000
000000
ENDCHAR

STARTCHAR Ca1bd
ENCODING 41405
SWIDTH 1000 0
DWIDTH 24 0
BBX 24 24 0 -4
BITMAP
000000
001000
001000
001000
001000
001000
001000
001000
001000
001000
001000
001000
001000
001000
001000
001000
001000
001000
001000
001000
001000
001000
001000
000000
ENDCHAR

STARTCHAR Ca1be
ENCODING 41406
SWIDTH 1000 0
DWIDTH 24 0
BBX 24 24 0 -4
BITMAP
000000
000000
000000
000000
000000
000000
000000
000000
000000
000000
001000
001000
001000
001000
001000
000000
000000
000000
000000
000000
000000
000000
000000
000000
ENDCHAR

STARTCHAR Ca1c1
ENCODING 41409
SWIDTH 1000 0
DWIDTH 24 0
BBX 24 24 0 -4
BITMAP
000000
000000
000C00
001800
003000
002000
006000
006000
006000
003000
003000
001800
001800
000C00
000C00
000600
000600
000600
000400
000C00
001800
003000
000000
000000
ENDCHAR

STARTCHAR Ca1c2
ENCODING 41410
SWIDTH 1000 0
DWIDTH 24 0
BBX 24 24 0 -4
BITMAP
000000
000000
000000
000000
000000
000000
000000
000000
000000
7FFFFE
000000
000000
000000
000000
7FFFFE
000000
000000
000000
000000
000000
000000
000000
000000
000000
ENDCHAR

STARTCHAR Ca1c3
ENCODING 41411
SWIDTH 1000 0
DWIDTH 24 0
BBX 24 24 0 -4
BITMAP
000000
000000
000000
000000
000000
000000
000000
000000
000000
000000
000000
7FFFFE
000000
000000
000000
000000
000000
000000
000000
000000
000000
000000
000000
000000
ENDCHAR

STARTCHAR Ca1c4
ENCODING 41412
SWIDTH 1000 0
DWIDTH 24 0
BBX 24 24 0 -4
BITMAP
000000
000000
001800
003C00
003C00
001800
000000
000000
000000
000000
001800
003C00
003C00
001800
000000
000000
000000
000000
001800
003C00
003C00
001800
000000
000000
ENDCHAR

STARTCHAR Ca1c5
ENCODING 41413
SWIDTH 1000 0
DWIDTH 24 0
BBX 24 24 0 -4
BITMAP
000000
000000
000000
000000
001800
003C00
003C00
001800
000000
000000
000000
000000
000000
000000
000000
000000
001800
003C00
003C00
001800
000000
000000
000000
000000
ENDCHAR

STARTCHAR Ca1c6
ENCODING 41414
SWIDTH 1000 0
DWIDTH 24 0
BBX 24 24 0 -4
BITMAP
000000
000000
000000
000000
000000
000000
000000
000000
000000
000000
000000
000000
000000
000000
000000
000000
000000
000000
000000
000038
00006C
000066
000000
000000
ENDCHAR

STARTCHAR Ca1c7
ENCODING 41415
SWIDTH 1000 0
DWIDTH 24 0
BBX 24 24 0 -4
BITMAP
000000
000000
000066
000036
00001C
000000
000000
000000
000000
000000
000000
000000
000000
000000
000000
000000
000000
000000
000000
000000
000000
000000
000000
000000
ENDCHAR

STARTCHAR Ca1c8
ENCODING 41416
SWIDTH 1000 0
DWIDTH 24 0
BBX 24 24 0 -4
BITMAP
000000
000000
000000
000000
000000
000000
000000
000000
000000
000000
000000
000000
000000
000000
000038
00006C
000066
000000
000000
000038
00006C
000066
000000
000000
ENDCHAR

STARTCHAR Ca1c9
ENCODING 41417
SWIDTH 1000 0
DWIDTH 24 0
BBX 24 24 0 -4
BITMAP
000000
000000
0000CC
00006C
000038
000000
000000
0000CC
00006C
000038
000000
000000
000000
000000
000000
000000
000000
000000
000000
000000
000000
000000
000000
000000
ENDCHAR

STARTCHAR Ca1ca
ENCODING 41418
SWIDTH 1000 0
DWIDTH 24 0
BBX 24 24 0 -4
BITMAP
000000
000000
000000
000000
000000
000000
000000
000000
000000
000000
000000
000000
000000
000000
000000
000000
007E00
03FFC0
0F00F0
180018
30000C
600006
000000
000000
ENDCHAR

STARTCHAR Ca1cb
ENCODING 41419
SWIDTH 1000 0
DWIDTH 24 0
BBX 24 24 0 -4
BITMAP
000000
000000
600006
30000C
180018
0F00F0
03FFC0
007E00
000000
000000
000000
000000
000000
000000
000000
000000
000000
000000
000000
000000
000000
000000
000000
000000
ENDCHAR

STARTCHAR Ca1cc
ENCODING 41420
SWIDTH 1000 0
DWIDTH 24 0
BBX 24 24 0 -4
BITMAP
000000
000000
000000
000000
000000
000000
000000
000000
000000
000000
000000
000000
000000
000000
000000
000000
000000
1FFFF8
100008
30000C
200004
600006
400002
000000
ENDCHAR

STARTCHAR Ca1cd
ENCODING 41421
SWIDTH 1000 0
DWIDTH 24 0
BBX 24 24 0 -4
BITMAP
000000
400002
600006
200004
30000C
100008
1FFFF8
000000
000000
000000
000000
000000
000000
000000
000000
000000
000000
000000
000000
000000
000000
000000
000000
000000
ENDCHAR

STARTCHAR Ca1ce
ENCODING 41422
SWIDTH 1000 0
DWIDTH 24 0
BBX 24 24 0 -4
BITMAP
000000
000000
000000
000000
000000
000000
000000
000000
000000
000000
000000
000000
000000
000000
000000
000000
000000
7FFFFE
400002
400002
400002
400002
400002
000000
ENDCHAR

STARTCHAR Ca1cf
ENCODING 41423
SWIDTH 1000 0
DWIDTH 24 0
BBX 24 24 0 -4
BITMAP
000000
400002
400002
400002
400002
400002
7FFFFE
000000
000000
000000
000000
000000
000000
000000
000000
000000
000000
000000
000000
000000
000000
000000
000000
000000
ENDCHAR

STARTCHAR Ca1d0
ENCODING 41424
SWIDTH 1000 0
DWIDTH 24 0
BBX 24 24 0 -4
BITMAP
000000
000000
000000
000000
000000
000000
000000
000000
000000
000000
000000
000000
000000
000000
000000
000000
000000
000800
001C00
0FF7F0
3FC1FC
600006
400002
000000
ENDCHAR

STARTCHAR Ca1d1
ENCODING 41425
SWIDTH 1000 0
DWIDTH 24 0
BBX 24 24 0 -4
BITMAP
000000
400002
600006
3FC1FC
0FF7F0
001C00
000800
000000
000000
000000
000000
000000
000000
000000
000000
000000
000000
000000
000000
000000
000000
000000
000000
000000
ENDCHAR

STARTCHAR Ca1d2
ENCODING 41426
SWIDTH 1000 0
DWIDTH 24 0
BBX 24 24 0 -4
BITMAP
000000
000000
000000
000000
000000
000000
000000
000000
000000
000000
000000
000000
000000
000000
000000
000000
000000
001C00
007700
01C1C0
070070
1C001C
700006
000000
ENDCHAR

STARTCHAR Ca1d3
ENCODING 41427
SWIDTH 1000 0
DWIDTH 24 0
BBX 24 24 0 -4
BITMAP
000000
700006
1C001C
070070
01C1C0
007700
001C00
000000
000000
000000
000000
000000
000000
000000
000000
000000
000000
000000
000000
000000
000000
000000
000000
000000
ENDCHAR

STARTCHAR Ca1d4
ENCODING 41428
SWIDTH 1000 0
DWIDTH 24 0
BBX 24 24 0 -4
BITMAP
000000
000000
000000
000000
000000
000000
000000
000000
000000
000000
000000
000000
000000
000000
001C00
007700
01C1C0
071C70
1C771C
71C1C6
070070
1C001C
700006
000000
ENDCHAR

STARTCHAR Ca1d5
ENCODING 41429
SWIDTH 1000 0
DWIDTH 24 0
BBX 24 24 0 -4
BITMAP
000000
700006
1C001C
070070
71C1C6
1C771C
071C70
01C1C0
007700
001C00
000000
000000
000000
000000
000000
000000
000000
000000
000000
000000
000000
000000
000000
000000
ENDCHAR

STARTCHAR Ca1d6
ENCODING 41430
SWIDTH 1000 0
DWIDTH 24 0
BBX 24 24 0 -4
BITMAP
000000
000000
000000
000000
000000
000000
000000
000000
000000
000000
000000
000000
000000
000000
000000
000000
000000
7FFFFE
000002
000002
000002
000002
000002
000000
ENDCHAR

STARTCHAR Ca1d7
ENCODING 41431
SWIDTH 1000 0
DWIDTH 24 0
BBX 24 24 0 -4
BITMAP
000000
400000
400000
400000
400000
400000
7FFFFE
000000
000000
000000
000000
000000
000000
000000
000000
000000
000000
000000
000000
000000
000000
000000
000000
000000
ENDCHAR

STARTCHAR Ca1d8
ENCODING 41432
SWIDTH 1000 0
DWIDTH 24 0
BBX 24 24 0 -4
BITMAP
000000
000000
000000
000000
000000
000000
000000
000000
000000
000000
000000
000000
000000
000000
000000
000000
0FFFFE
080002
0FFFFA
00000A
00000A
00000A
00000E
000000
ENDCHAR

STARTCHAR Ca1d9
ENCODING 41433
SWIDTH 1000 0
DWIDTH 24 0
BBX 24 24 0 -4
BITMAP
000000
700000
500000
500000
500000
5FFFE0
400020
7FFFE0
000000
000000
000000
000000
000000
000000
000000
000000
000000
000000
000000
000000
000000
000000
000000
000000
ENDCHAR

STARTCHAR Ca1da
ENCODING 41434
SWIDTH 1000 0
DWIDTH 24 0
BBX 24 24 0 -4
BITMAP
000000
000000
000000
000000
000000
000000
000000
000000
000000
000000
000000
000000
000000
000000
000000
7FFFFE
7FFFFE
7FFFFE
7E007E
78001E
70000E
600006
400002
000000
ENDCHAR

STARTCHAR Ca1db
ENCODING 41435
SWIDTH 1000 0
DWIDTH 24 0
BBX 24 24 0 -4
BITMAP
000000
400002
600006
70000E
78001E
7E007E
7FFFFE
7FFFFE
7FFFFE
000000
000000
000000
000000
000000
000000
000000
000000
000000
000000
000000
000000
000000
000000
000000
ENDCHAR

STARTCHAR Ca2a2
ENCODING 41634
SWIDTH 1000 0
DWIDTH 24 0
BBX 24 24 0 -4
BITMAP
000000
000000
000000
1FFFF8
100008
100008
100008
100008
100008
100008
100008
100008
100008
100008
100008
100008
100008
100008
100008
100008
1FFFF8
000000
000000
000000
ENDCHAR

STARTCHAR Ca4a1
ENCODING 42145
SWIDTH 1000 0
DWIDTH 24 0
BBX 24 24 0 -4
BITMAP
000000
000000
000000
000000
000C00
000600
010670
0187E0
00FC00
000C80
000880
000FC0
0038F0
00F198
01930C
03160C
021C0C
023C18
01E630
0000C0
000000
000000
000000
000000
ENDCHAR

STARTCHAR Ca4a3
ENCODING 42147
SWIDTH 1000 0
DWIDTH 24 0
BBX 24 24 0 -4
BITMAP
000000
000000
000000
000000
000000
060000
030060
038030
030010
030018
020008
02000C
02000C
020808
031800
013000
01E000
00C000
000000
000000
000000
000000
000000
000000
ENDCHAR

STARTCHAR Ca4a5
ENCODING 42149
SWIDTH 1000 0
DWIDTH 24 0
BBX 24 24 0 -4
BITMAP
000000
000000
000000
000400
000600
0003F0
0000C0
000180
000000
0001F0
006718
003C0C
00180C
00000C
00000C
000018
000030
000060
0001C0
000300
000000
000000
000000
000000
ENDCHAR

STARTCHAR Ca4a7
ENCODING 42151
SWIDTH 1000 0
DWIDTH 24 0
BBX 24 24 0 -4
BITMAP
000000
000000
000000
000000
00C000
007C00
003000
006000
000180
021FC0
03F300
018600
000C00
001800
003C00
006600
00C600
018300
0303F8
0700FC
000000
000000
000000
000000
ENDCHAR

STARTCHAR Ca4a9
ENCODING 42153
SWIDTH 1000 0
DWIDTH 24 0
BBX 24 24 0 -4
BITMAP
000000
000000
000000
000000
003000
001830
000998
020F0C
03F80C
018800
000800
000FF0
003C18
00E80C
01880C
03080C
078818
067830
0018C0
000000
000000
000000
000000
000000
ENDCHAR

STARTCHAR Ca4c3
ENCODING 42179
SWIDTH 1000 0
DWIDTH 24 0
BBX 24 24 0 -4
BITMAP
000000
000000
000000
000000
000000
000000
020FC0
03F870
01C018
00000C
00000C
00000C
00001C
000038
0000F0
0007C0
003C00
000000
000000
000000
000000
000000
000000
000000
ENDCHAR

STARTCHAR Ca4e3
ENCODING 42211
SWIDTH 1000 0
DWIDTH 24 0
BBX 24 24 0 -4
BITMAP
000000
000000
000000
000400
000600
000300
00CF00
018000
0181E0
00C718
00DC0C
0C700C
07E00C
033018
003070
0019C0
001800
000C00
000C00
000C00
000000
000000
000000
000000
ENDCHAR

STARTCHAR Ca4e5
ENCODING 42213
SWIDTH 1000 0
DWIDTH 24 0
BBX 24 24 0 -4
BITMAP
000000
000000
000000
000000
000C00
060600
030300
030300
0203C0
060F70
063B18
04630C
04C30C
04820C
05260C
053618
061C70
020FC0
001800
003000
000000
000000
000000
000000
ENDCHAR

STARTCHAR Ca4e7
ENCODING 42215
SWIDTH 1000 0
DWIDTH 24 0
BBX 24 24 0 -4
BITMAP
000000
000000
000000
000000
000C00
000700
000300
000300
00031C
0003F8
000300
000300
000300
000300
003F00
00E3C0
018370
01031C
018E0C
00F800
000000
000000
000000
000000
ENDCHAR

STARTCHAR Ca4ee
ENCODING 42222
SWIDTH 1000 0
DWIDTH 24 0
BBX 24 24 0 -4
BITMAP
000000
000000
000000
000000
00C000
006000
002000
003800
047000
07E3E0
026E38
00780C
00E00C
01A00C
03200C
06201C
042038
01E0E0
00C780
000000
000000
000000
000000
000000
ENDCHAR

STARTCHAR Ca5a1
ENCODING 42401
SWIDTH 1000 0
DWIDTH 24 0
BBX 24 24 0 -4
BITMAP
000000
000000
000000
000000
000030
0207F8
03FC1C
01803C
000070
000CC0
000780
000600
000600
000C00
000C00
001800
001800
003000
006000
00C000
000000
000000
000000
000000
ENDCHAR

STARTCHAR Ca5a3
ENCODING 42403
SWIDTH 1000 0
DWIDTH 24 0
BBX 24 24 0 -4
BITMAP
000000
000000
000000
000000
000010
000018
00003C
000038
000070
0000E0
0001C0
000360
000660
001C60
003060
000060
000060
000060
000060
000040
000000
000000
000000
000000
ENDCHAR

STARTCHAR Ca5a5
ENCODING 42405
SWIDTH 1000 0
DWIDTH 24 0
BBX 24 24 0 -4
BITMAP
000000
000000
000000
000000
000600
000300
000300
008310
00FFF8
00401C
004018
004018
00C030
00C030
000060
0000C0
000180
000300
000C00
000000
000000
000000
000000
000000
ENDCHAR

STARTCHAR Ca5a7
ENCODING 42407
SWIDTH 1000 0
DWIDTH 24 0
BBX 24 24 0 -4
BITMAP
000000
000000
000000
000000
000000
000000
0200C0
03FFE0
018800
000C00
000E00
000C00
000C00
000C00
0C0830
07FFF8
018000
000000
000000
000000
000000
000000
000000
000000
ENDCHAR

STARTCHAR Ca5a9
ENCODING 42409
SWIDTH 1000 0
DWIDTH 24 0
BBX 24 24 0 -4
BITMAP
000000
000000
000000
000000
000700
000380
000300
000300
020318
03FFFC
018700
000D80
001980
003180
006180
00C180
018180
020F80
000300
000000
000000
000000
000000
000000
ENDCHAR

STARTCHAR Ca5c3
ENCODING 42435
SWIDTH 1000 0
DWIDTH 24 0
BBX 24 24 0 -4
BITMAP
000000
000000
000000
000000
000000
001830
030C1C
018618
00C630
00C030
000060
000060
0000C0
000180
000300
000600
000C00
003000
000000
000000
000000
000000
000000
000000
ENDCHAR

STARTCHAR Ca5e3
ENCODING 42467
SWIDTH 1000 0
DWIDTH 24 0
BBX 24 24 0 -4
BITMAP
000000
000000
000000
000000
003000
001C00
001800
001830
061FF8
03FC1C
018C30
000C60
000CC0
000C00
000600
000600
000600
000600
000600
000000
000000
000000
000000
000000
ENDCHAR

STARTCHAR Ca5e5
ENCODING 42469
SWIDTH 1000 0
DWIDTH 24 0
BBX 24 24 0 -4
BITMAP
000000
000000
000000
000000
000000
000000
020300
03FF80
01C1C0
0001C0
000180
000180
000180
000300
000300
0C0330
07FFF8
018000
000000
000000
000000
000000
000000
000000
ENDCHAR

STARTCHAR Ca5e7
ENCODING 42471
SWIDTH 1000 0
DWIDTH 24 0
BBX 24 24 0 -4
BITMAP
000000
000000
000000
000000
000000
018030
00FFF8
00301C
00001C
000018
0080D8
00FFF0
003030
000030
000030
000060
018060
00FFF8
003000
000000
000000
000000
000000
000000
ENDCHAR

STARTCHAR Ca5ee
ENCODING 42478
SWIDTH 1000 0
DWIDTH 24 0
BBX 24 24 0 -4
BITMAP
000000
000000
000000
000000
018010
00C078
00FFFC
00C018
00C018
00C018
00C030
008030
000060
000060
0000C0
000180
000300
000600
000800
000000
000000
000000
000000
000000
ENDCHAR

STARTCHAR Ca5f5
ENCODING 42485
SWIDTH 1000 0
DWIDTH 24 0
BBX 24 24 0 -4
BITMAP
000000
000000
000000
000000
000E00
000600
000600
000630
0187F8
00FE1C
000618
000C18
000C18
001818
001818
003030
006330
01C1F0
0300E0
000000
000000
000000
000000
000000
ENDCHAR

STARTCHAR Ca5f6
ENCODING 42486
SWIDTH 1000 0
DWIDTH 24 0
BBX 24 24 0 -4
BITMAP
000000
000000
000000
000000
006000
003000
003000
006000
006038
00FFFC
00C180
018180
030300
060300
000600
000600
000C00
001800
003000
000000
000000
000000
000000
000000
ENDCHAR
ENDFONT
